<?xml version="1.0" standalone="no"?><!DOCTYPE svg PUBLIC "-//W3C//DTD SVG 1.1//EN" "http://www.w3.org/Graphics/SVG/1.1/DTD/svg11.dtd"><svg t="1565855470292" class="icon" viewBox="0 0 1024 1024" version="1.1" xmlns="http://www.w3.org/2000/svg" p-id="517" xmlns:xlink="http://www.w3.org/1999/xlink" width="200" height="200"><defs><style type="text/css"></style></defs><path d="M526.628571 770.267429l155.574858-155.574858a33.572571 33.572571 0 0 1 47.396571 47.323429L550.765714 840.923429a33.206857 33.206857 0 0 1-22.601143 9.728 33.426286 33.426286 0 0 1-25.453714-9.728L323.876571 662.016a33.645714 33.645714 0 0 1 0-47.396571 33.645714 33.645714 0 0 1 47.250286 0l155.574857 155.648z m0-260.900572a33.645714 33.645714 0 0 1 0-67.291428 33.645714 33.645714 0 1 1 0 67.291428z m0-134.436571a33.645714 33.645714 0 1 1 0.146286-67.291429 33.645714 33.645714 0 0 1-0.073143 67.291429z m0-134.436572a33.645714 33.645714 0 1 1 0.146286-67.291428 33.645714 33.645714 0 0 1-0.073143 67.291428z" fill="#4c84ff" p-id="518" data-spm-anchor-id="a313x.7781069.0.i0" class="selected"></path></svg>